# xmcd
#
# Track frame offsets:
#	150
#	19747
#	39265
#	53950
#	66811
#	87663
#	104095
#	121403
#	134299
#	154801
#	176208
#	190237
#
# Disc length: 2762 seconds
#
# Revision: 1
# Processed by: cddbd v1.5.1PL2 Copyright (c) Steve Scherf et al.
# Submitted via: audiograbber 1.83.01
#
DISCID=ab0ac80c
DTITLE=Corey Smith - The Good Life
DYEAR=2005
DGENRE=Folk-Rock
TTITLE0=Long Way To Go
TTITLE1=If I Could Do It Again
TTITLE2=Carolina
TTITLE3=I Can't Help Myself
TTITLE4=The Bottle
TTITLE5=The Lord Works In A Strange Way
TTITLE6=Harmony
TTITLE7=My Two Babies
TTITLE8=Single-Wide Home
TTITLE9=Leaving An Angel
TTITLE10=If That's Country
TTITLE11=The Good Life
EXTD=
EXTT0=
EXTT1=
EXTT2=
EXTT3=
EXTT4=
EXTT5=
EXTT6=
EXTT7=
EXTT8=
EXTT9=
EXTT10=
EXTT11=
PLAYORDER=
